<svg width="166" height="97" viewBox="0 0 166 97" fill="none" xmlns="http://www.w3.org/2000/svg">
<path d="M113.01 58.9048H18.805V60.4649H113.01V58.9048Z" fill="#2ABBDD"/>
<path d="M103.879 52.6285C103.372 52.9913 102.973 53.2453 102.756 53.2453C102.611 53.2453 102.394 53.1364 102.249 52.9187C102.14 52.7373 102.104 52.3382 102.104 51.7215L102.213 47.0412C102.213 46.2793 102.176 45.6625 102.031 45.336C101.959 44.9369 101.778 44.6466 101.56 44.3564C101.379 44.0661 101.053 43.8847 100.727 43.7396C100.365 43.5945 99.9298 43.5945 99.4951 43.5945C99.2777 43.5945 98.9878 43.5945 98.7342 43.6308C97.8646 43.7759 96.9588 44.0661 95.9442 44.5378C95.908 45.336 95.8356 46.0616 95.6544 46.9323L96.3066 46.9686C96.6327 46.1704 96.9588 45.5899 97.3573 45.1909C97.7196 44.828 98.1544 44.6104 98.6979 44.6104H98.7704C99.3501 44.6104 99.7849 44.7555 100.039 45.1183C100.365 45.4448 100.473 46.1704 100.546 47.1863C100.002 47.4766 99.3864 47.8031 98.6979 48.0933C98.2269 48.3836 97.6472 48.6738 97.1399 48.9278C96.524 49.2906 96.1979 49.5083 95.908 49.726C95.6182 50.0163 95.3645 50.3428 95.2196 50.7419C95.0384 51.141 95.0022 51.5763 95.0022 52.048C95.0022 52.8825 95.2196 53.5355 95.6906 54.0072C96.1254 54.4788 96.7414 54.7691 97.5023 54.7691C97.9008 54.7691 98.2994 54.6602 98.7342 54.5514L98.7704 54.4788C99.2052 54.3337 99.7849 53.8621 100.582 53.1727C100.691 53.7532 100.799 54.1886 101.017 54.4063C101.234 54.624 101.597 54.7691 102.031 54.7691C102.285 54.7691 102.539 54.6965 102.72 54.624C102.828 54.5514 103.336 54.0435 104.242 53.1364L103.879 52.6285ZM100.51 50.1251C100.51 51.1047 100.437 51.7215 100.292 52.048C100.183 52.4471 99.8211 52.7373 99.3863 53.0276C99.169 53.209 98.9153 53.3541 98.6979 53.3904C98.5168 53.4267 98.3356 53.4992 98.2269 53.4992C97.8284 53.4992 97.5023 53.3541 97.2124 52.955C96.9588 52.6648 96.8138 52.2294 96.8138 51.6126C96.8138 51.0684 96.995 50.5605 97.3573 50.1614C97.5747 49.9437 98.0095 49.6172 98.6979 49.1818C99.169 48.9278 99.7849 48.6376 100.546 48.2385V50.1251H100.51Z" fill="#090909"/>
<path d="M80.5451 75.4128C80.3277 75.4128 80.1828 75.304 80.0379 75.0863C79.8929 74.9049 79.8567 74.542 79.8567 73.889L79.9292 69.2087C79.9292 68.4105 79.8567 67.83 79.748 67.4672C79.6031 67.0681 79.4944 66.8142 79.2408 66.5239C79.0234 66.2337 78.7335 66.0523 78.3712 65.9071C77.9726 65.7257 77.574 65.6895 77.103 65.6895C76.8494 65.6895 76.5595 65.6894 76.3059 65.7257C75.4363 65.9071 74.5667 66.1611 73.5522 66.7053C73.516 67.4672 73.4073 68.2291 73.2986 69.0273L73.9145 69.0636C74.2406 68.2654 74.603 67.6849 75.0015 67.3221C75.3639 66.9956 75.7986 66.8142 76.3059 66.7779H76.3784C76.9581 66.7779 77.4291 66.923 77.6827 67.2858C77.9364 67.6124 78.1175 68.338 78.19 69.3538C77.6103 69.6441 76.9581 69.9343 76.3059 70.2609C75.7986 70.5511 75.3276 70.8051 74.7841 71.1316C74.2044 71.4582 73.8058 71.7121 73.5522 71.8935C73.2261 72.1838 73.0087 72.5466 72.8638 72.9094C72.6826 73.3085 72.6102 73.7076 72.6102 74.2155C72.6102 75.0137 72.8276 75.6668 73.2986 76.1384C73.8058 76.7189 74.3856 76.9366 75.1465 76.9366C75.545 76.9366 75.9436 76.7915 76.3059 76.7189L76.3784 76.6464C76.7407 76.5012 77.3566 76.0296 78.19 75.3402C78.2625 75.8845 78.4074 76.3198 78.6248 76.5375C78.8784 76.7915 79.2045 76.9366 79.6755 76.9366C79.9292 76.9366 80.1828 76.864 80.4002 76.7552C80.4364 76.7189 80.9799 76.211 81.922 75.2314L81.5959 74.7597C81.1611 75.1951 80.7625 75.4128 80.5451 75.4128ZM78.2262 72.3289C78.2262 73.2359 78.1175 73.889 78.0088 74.2518C77.8639 74.6146 77.574 74.9411 77.103 75.2314C76.8494 75.4128 76.5958 75.5216 76.3421 75.5579C76.1972 75.5942 76.016 75.6668 75.9073 75.6668C75.5088 75.6668 75.1827 75.4854 74.9291 75.0863C74.6754 74.796 74.5305 74.3244 74.5305 73.7076C74.5305 73.1996 74.7117 72.6917 75.074 72.3289C75.2914 72.1112 75.6899 71.7484 76.3784 71.3493C76.8856 71.0591 77.5016 70.7688 78.2625 70.3697V72.3289H78.2262Z" fill="#090909"/>
<path d="M10.616 75.2312C9.8913 75.4489 9.16665 75.5577 8.40577 75.5577C7.82604 75.5577 7.24632 75.4851 6.73906 75.34C5.76078 75.0498 4.8912 74.5781 4.16654 73.7074C3.07957 72.4012 2.53608 70.7323 2.53608 68.5554C2.53608 66.6688 2.93463 65.145 3.69552 63.9477C4.42017 62.823 5.39846 62.0248 6.70283 61.7709C7.10139 61.6983 7.60865 61.6257 8.07967 61.6257C8.98549 61.6257 9.74637 61.7709 10.3623 62.0611C11.0507 62.3514 11.4855 62.7505 11.7392 63.2584C11.9928 63.73 12.2827 64.6371 12.5363 65.9795H13.3334C13.2609 64.891 13.1885 63.8752 13.1885 62.9319C13.1885 62.6416 13.1885 62.17 13.2247 61.4806C11.3768 60.7913 9.74637 60.4285 8.26083 60.4285C7.68111 60.4285 7.13762 60.4647 6.59413 60.5736C4.92743 60.9001 3.55059 61.662 2.46361 62.8593C0.978071 64.4194 0.253418 66.4511 0.253418 68.9908C0.253418 70.5146 0.507047 71.8933 1.123 73.1631C1.70272 74.3967 2.49984 75.4126 3.62305 76.1019C4.52887 76.6824 5.50715 77.009 6.59413 77.1178H7.28255C8.36953 77.1178 9.38405 76.9727 10.3986 76.5736C11.3768 76.2108 12.4276 75.6665 13.5146 74.9046L13.116 74.0702C12.2102 74.6144 11.3406 74.9772 10.616 75.2312Z" fill="#090909"/>
<path d="M18.189 54.8773H18.4064C19.7832 54.8411 20.9427 54.2243 21.8123 53.281C22.7181 52.1925 23.2253 50.6687 23.2253 48.8547C23.2253 47.1132 22.7906 45.7708 21.9572 44.8637C21.0876 43.8842 19.9644 43.3762 18.5876 43.3762H18.4064C16.9571 43.4125 15.8339 43.993 14.9281 44.9363C14.0223 46.0247 13.5875 47.5123 13.5875 49.3263C13.5875 51.1041 13.986 52.4465 14.8194 53.4261C15.6165 54.4057 16.7397 54.8773 18.189 54.8773ZM16.3049 45.3717C16.8122 44.6823 17.4644 44.3558 18.2977 44.3558H18.4426C19.2035 44.4284 19.8195 44.7912 20.4354 45.5894C21.0152 46.4601 21.3413 47.73 21.3413 49.5077C21.3413 51.1041 21.0876 52.1925 20.5441 52.8819C20.0006 53.5712 19.3122 53.9703 18.5151 53.9703H18.4789C17.8629 53.934 17.3194 53.6801 16.8484 53.2447C16.3411 52.7368 15.9788 52.0111 15.7614 51.1041C15.6165 50.4873 15.5803 49.5803 15.5803 48.383C15.544 47.0043 15.7614 45.9885 16.3049 45.3717Z" fill="#090909"/>
<path d="M97.321 67.1042C97.7558 66.8503 98.1906 66.6326 98.6616 66.6326H98.7341C99.4225 66.6326 100.002 66.8503 100.365 67.3219C100.691 67.7936 100.908 68.5192 100.98 69.4625L101.669 69.4988C101.778 68.7006 101.959 67.975 101.995 67.5033C102.14 67.0679 102.176 66.7414 102.212 66.4512C101.307 65.9432 100.365 65.6167 99.35 65.6167C99.0964 65.6167 98.879 65.653 98.6616 65.653C97.5021 65.8344 96.4876 66.3786 95.6543 67.3582C94.676 68.5555 94.1325 69.9704 94.1325 71.7482C94.1325 73.4897 94.6398 74.941 95.5818 75.9205C96.3427 76.6824 97.2847 77.0815 98.4442 77.0815H98.6616C99.0239 77.0453 99.35 76.9727 99.6399 76.8276C100.401 76.4648 101.162 75.9205 102.249 75.0135L101.85 74.3242C100.727 75.0498 99.7486 75.4489 98.879 75.4489H98.6616C97.9732 75.34 97.321 75.0135 96.7775 74.2516C96.1978 73.4897 95.8717 72.365 95.8717 70.9863C95.8717 70.1518 96.0166 69.2811 96.234 68.628C96.4876 67.9387 96.8862 67.4308 97.321 67.1042Z" fill="#090909"/>
<path d="M84.6758 54.6597V54.0066C84.4947 53.934 84.386 53.934 84.3135 53.8615C83.7338 53.6801 83.3714 53.5349 83.2627 53.3898C83.154 53.3173 83.0816 53.1721 83.0453 52.9182C83.0091 52.6279 82.9729 51.7934 82.9729 50.4148C82.9729 47.5123 83.0453 45.2266 83.1903 43.5939L82.9366 43.3762C81.9584 44.0293 80.8714 44.5009 79.7482 44.8637V45.4805C80.3279 45.408 80.654 45.3717 80.8352 45.3717C81.0525 45.3717 81.1975 45.4805 81.2699 45.6257C81.4149 45.8071 81.4511 46.315 81.4511 47.1495V47.5848V49.9794C81.4511 51.9749 81.4149 53.0633 81.2699 53.2447C81.1975 53.4624 80.654 53.6801 79.7482 53.934V54.5871C81.2337 54.4783 82.1758 54.4057 82.5019 54.4057C83.0453 54.4783 83.77 54.5508 84.6758 54.6597Z" fill="#090909"/>
<path d="M82.2481 40.3291C82.5017 40.3291 82.7916 40.2566 83.009 40.0026C83.1901 39.7849 83.2626 39.4947 83.2626 39.1681C83.2626 38.8053 83.1539 38.5151 83.009 38.2974C82.7916 38.0797 82.5017 37.9346 82.2481 37.9346C81.922 37.9346 81.7046 38.0797 81.4872 38.2974C81.306 38.5151 81.2336 38.8053 81.2336 39.1681C81.2336 39.4947 81.306 39.7486 81.4872 40.0026C81.7046 40.2566 81.922 40.3291 82.2481 40.3291Z" fill="#090909"/>
<path d="M69.6026 40.3286C69.7113 40.5463 69.7475 42.7594 69.7475 46.9318C69.7475 49.6528 69.7475 51.5032 69.7113 52.4465C69.6751 52.9907 69.6026 53.3535 69.5301 53.4624C69.4577 53.5712 69.1316 53.68 68.4794 53.8615C68.4432 53.934 68.2982 53.9703 68.1533 54.0066V54.6596C69.0953 54.5508 69.8925 54.4782 70.5809 54.4782C71.1968 54.4782 72.0302 54.5508 73.0085 54.6596V54.0066C72.8635 53.934 72.7548 53.934 72.6824 53.8615C72.0664 53.68 71.7041 53.5349 71.5954 53.4624C71.5229 53.3535 71.4142 53.1358 71.4142 52.8456C71.3418 52.3376 71.3418 51.2492 71.3418 49.544C71.3418 48.3104 71.378 47.476 71.5592 46.9318C71.7403 46.4601 72.0664 46.0247 72.5012 45.6619C72.936 45.3717 73.407 45.154 73.878 45.154C74.2766 45.154 74.6027 45.3354 74.9288 45.5531C75.1824 45.7708 75.4361 46.0247 75.5085 46.3875C75.6535 46.7141 75.6897 47.476 75.6897 48.4918L75.6534 51.7571C75.6534 52.4102 75.6172 52.8456 75.6172 52.9544C75.581 53.1358 75.5447 53.3172 75.4723 53.3535C75.3636 53.4624 75.3274 53.5349 75.2549 53.5349L74.023 53.9703V54.6234C74.9288 54.5145 75.6897 54.442 76.3056 54.442H76.3419C76.8491 54.442 77.6825 54.5145 78.9144 54.6234V53.9703C78.7695 53.934 78.6608 53.8977 78.5883 53.8977C77.8999 53.7163 77.5375 53.5349 77.4651 53.4261C77.3201 53.281 77.2839 52.9181 77.2839 52.3739C77.2839 48.637 77.2839 46.4601 77.2477 46.0247C77.1752 45.2991 76.8854 44.6823 76.4506 44.2469C76.4143 44.2107 76.3781 44.1744 76.3056 44.1744C75.8708 43.7753 75.3274 43.5939 74.6027 43.5939C74.2041 43.5939 73.8056 43.6665 73.3708 43.8116C73.1172 43.9567 72.8273 44.1381 72.5737 44.3558L71.2693 45.807V44.6823C71.2693 43.8841 71.3055 42.5417 71.378 40.51C71.4142 39.5304 71.4142 38.7685 71.5229 38.188L71.2693 38.0066C70.8707 38.2606 70.3997 38.5145 70.0012 38.7322C69.6026 38.9136 68.9142 39.1313 68.0084 39.4578V40.0746C68.4432 40.0021 68.7692 40.0021 68.9866 40.0021C69.3127 40.0021 69.4939 40.0746 69.6026 40.3286Z" fill="#090909"/>
<path d="M29.2758 54.6596V54.0066C28.4062 53.7526 27.9352 53.5349 27.8265 53.3535C27.6816 53.2447 27.6091 52.9544 27.6091 52.5553C27.5729 52.1562 27.5729 49.9794 27.5729 46.0973C27.5729 42.2515 27.6091 39.603 27.7903 38.188L27.5367 38.0066C26.5584 38.5508 25.4714 39.0225 24.312 39.4941V40.1109C24.8192 40.0021 25.1815 39.9295 25.3627 39.9295C25.5439 39.9295 25.725 40.0383 25.7975 40.1472C25.87 40.256 25.9787 40.5463 25.9787 40.9454V41.0905V46.4238C25.9787 50.1608 25.9787 52.1925 25.9424 52.6642C25.9424 53.027 25.9062 53.2447 25.7975 53.281C25.6888 53.3898 25.2178 53.6075 24.312 53.934V54.5871C25.2902 54.4782 26.1598 54.4057 26.7758 54.4057C27.3555 54.4782 28.2251 54.5508 29.2758 54.6596Z" fill="#090909"/>
<path d="M3.62327 54.5512C4.52908 54.6238 5.18127 54.66 5.61606 54.66C6.01462 54.66 6.41318 54.6238 6.77551 54.6238C8.07988 54.4786 9.05816 54.1521 9.81905 53.6442C11.1959 52.6646 11.9205 51.3585 11.9205 49.6895C11.9205 48.8188 11.7394 48.1657 11.3771 47.6215C11.0147 47.1136 10.5799 46.7145 10.0002 46.4242C9.60165 46.2428 9.02193 46.0977 8.29728 46.0614C9.02193 45.8074 9.52919 45.5172 9.81905 45.2269C10.2538 44.9004 10.6162 44.3925 10.906 43.8483C11.1597 43.2678 11.2684 42.6873 11.2684 42.0705C11.2684 41.0909 10.9423 40.2927 10.2901 39.6034C9.60165 38.9503 8.58714 38.6601 7.24653 38.6601H6.81174H5.5436C4.81894 38.6963 4.09429 38.7689 3.4421 38.7689C2.39136 38.7689 1.23191 38.7326 0.0362327 38.6238V39.3131C0.217396 39.3494 0.362327 39.422 0.434792 39.422C1.37684 39.6396 1.8841 39.7848 1.9928 39.8211C2.06526 39.8936 2.13773 39.9299 2.17396 40.0387C2.24642 40.2201 2.31889 40.8369 2.31889 41.8891L2.35512 46.8959C2.35512 50.0886 2.31889 52.0841 2.24642 52.8097C2.21019 53.1362 2.17396 53.3176 2.10149 53.3902C1.95656 53.499 1.41307 53.6804 0.434792 53.8256C0.362327 53.8981 0.217396 53.9344 0 54.007V54.6963C1.63047 54.5875 2.46382 54.5149 2.60875 54.5149C2.60875 54.4786 2.97108 54.4786 3.62327 54.5512ZM9.31179 47.9118C9.67412 48.4197 9.85528 49.0365 9.85528 49.8346C9.85528 51.0319 9.52919 51.939 8.91323 52.6283C8.40598 53.1 7.71756 53.4628 6.73927 53.5353C6.52188 53.5353 6.30448 53.5716 6.05085 53.5716C5.47113 53.5716 4.81894 53.5353 4.13052 53.3902V46.6419H5.68853C6.05085 46.6419 6.41318 46.6419 6.73927 46.6782C7.28276 46.6782 7.71755 46.787 8.04365 46.8959C8.55091 47.0773 9.02193 47.4038 9.31179 47.9118ZM4.23922 39.8211C4.96387 39.6759 5.57983 39.6397 6.15955 39.6397H6.73927C7.46393 39.7485 8.04365 39.8936 8.40598 40.1839C9.02193 40.6918 9.34802 41.4174 9.34802 42.4333C9.34802 43.1589 9.20309 43.7394 8.91323 44.2836C8.55091 44.8279 8.15235 45.1907 7.60886 45.4083C7.39146 45.5172 7.1016 45.5898 6.73927 45.626C6.30448 45.6623 5.76099 45.7349 5.1088 45.7349H4.13052C4.13052 45.1907 4.09429 44.7553 4.09429 44.5013C4.09429 42.5059 4.16676 40.9458 4.23922 39.8211Z" fill="#090909"/>
<path d="M57.2113 53.9339C58.2983 54.6596 59.5664 54.9498 60.907 54.9498C61.9578 54.9498 62.9723 54.8047 63.9506 54.4419C65.0013 54.0428 66.0158 53.5349 67.1028 52.7367L66.668 51.9022C65.6897 52.4464 64.7839 52.8818 64.0593 53.0995C63.3708 53.3172 62.6099 53.3897 61.8853 53.3897C60.1461 53.3897 58.6968 52.773 57.6098 51.5031C56.5229 50.2333 55.9794 48.5281 55.9794 46.3512C55.9794 44.5009 56.3779 42.977 57.1388 41.7798C58.1171 40.256 59.5664 39.4578 61.5592 39.4578C62.465 39.4578 63.2621 39.6029 63.9143 39.8569C64.5303 40.1834 65.0013 40.5825 65.2549 41.0904C65.581 41.5984 65.8347 42.5054 66.052 43.8115H66.9216C66.8492 42.7594 66.7405 41.7072 66.7405 40.7639C66.7405 40.4736 66.7767 39.9657 66.7767 39.2764C64.9651 38.587 63.2984 38.2605 61.8128 38.2605C59.4215 38.2605 57.5011 39.0587 56.0156 40.6551C54.5663 42.2877 53.8054 44.3194 53.8054 46.8228C53.8054 48.3467 54.1315 49.7616 54.675 50.9952C55.291 52.2287 56.1605 53.2446 57.2113 53.9339Z" fill="#090909"/>
<path d="M51.559 75.0866C51.1242 75.3043 50.6532 75.4131 50.2184 75.4131C50.0372 75.4131 49.8561 75.3406 49.6749 75.3406C49.059 75.1592 48.5517 74.7601 48.1531 74.0707C47.6097 73.2 47.356 71.8939 47.3923 70.2249C48.0807 70.1887 48.8778 70.1887 49.6749 70.1161H52.03H52.9359C53.1533 69.8621 53.4431 69.6444 53.6967 69.463C53.6967 68.1569 53.3706 67.2136 52.8272 66.5606C52.2474 65.9075 51.4503 65.5447 50.3996 65.5447C50.1822 65.5447 49.9648 65.581 49.6749 65.581C48.6242 65.7624 47.7546 66.3066 46.9575 67.2136C46.0517 68.302 45.5806 69.717 45.5806 71.5311C45.5806 73.2 45.9792 74.5424 46.7401 75.5583C47.501 76.5379 48.443 77.0458 49.53 77.0458H49.6749C50.0735 77.0095 50.472 76.9732 50.9068 76.8281C51.1605 76.7556 51.4866 76.5741 51.7764 76.3565L53.8054 74.7238L53.4069 74.0345C52.646 74.5424 52.0663 74.9052 51.559 75.0866ZM48.443 67.2136C48.8053 66.8145 49.2039 66.5968 49.6749 66.5606H49.9285C50.5445 66.5606 51.0518 66.8145 51.4141 67.4313C51.6677 67.7578 51.8126 68.3383 51.8489 69.0639C51.088 69.2091 50.3633 69.2454 49.6387 69.2454C49.0952 69.2816 48.5155 69.2816 48.0082 69.2816H47.4647C47.6821 68.3383 48.0082 67.6127 48.443 67.2136Z" fill="#090909"/>
<path d="M91.9221 75.6671C91.8496 75.5946 91.7409 75.4494 91.7047 75.2317C91.6685 74.8689 91.6685 73.7805 91.6685 71.9664L91.7047 69.2453C91.7047 68.0843 91.5236 67.2499 91.1975 66.8145C90.7264 66.0889 90.0018 65.7261 88.9873 65.7261C88.5887 65.7261 88.1539 65.7986 87.7916 65.9438C87.4655 66.0889 87.2481 66.2703 87.0307 66.4154L85.7263 67.9029C85.7626 67.2499 85.835 66.5605 85.9075 65.9075L85.6539 65.7261C84.6756 66.3791 83.5886 66.8508 82.3567 67.1773V67.7941C82.5379 67.7941 82.6828 67.7215 82.7553 67.7215C83.0813 67.6853 83.2987 67.6853 83.4437 67.6853C83.7698 67.6853 83.9872 67.8304 84.0596 68.1569C84.0959 68.3746 84.0959 69.717 84.0959 72.3292C84.0959 73.4902 84.0596 74.5424 84.0234 75.2317C83.9872 75.4857 83.9147 75.6671 83.8785 75.6671C83.7335 75.8122 83.2987 75.9211 82.5016 76.1388V76.7918C83.6973 76.7555 84.5669 76.683 85.1466 76.683C85.7626 76.683 86.5234 76.7555 87.4293 76.7918V76.1388C87.2481 76.1025 87.1032 76.1025 87.0307 76.0299C86.3423 75.8485 85.9437 75.6308 85.8713 75.4131C85.7988 75.1955 85.7263 73.7079 85.7263 71.0231C85.7263 70.0435 85.835 69.2816 85.98 68.81C86.1974 68.3746 86.5234 67.9392 86.9582 67.649C87.3568 67.3587 87.8278 67.2136 88.2626 67.2136C88.6612 67.2136 89.0235 67.3587 89.3496 67.649C89.6395 67.9029 89.8206 68.2658 89.9293 68.7737C89.9655 69.1365 90.038 70.1161 90.038 71.7125C90.038 73.3088 90.0018 74.4336 89.9293 75.1955C89.8569 75.4131 89.8206 75.522 89.7482 75.6308C89.6395 75.6671 89.2047 75.8848 88.4438 76.1388V76.7918C89.6757 76.7555 90.654 76.683 91.1612 76.683C91.8134 76.683 92.4656 76.7555 93.299 76.7918V76.1388C93.1178 76.1025 92.9004 76.1025 92.8642 76.0299C92.2844 75.8848 91.9946 75.7397 91.9221 75.6671Z" fill="#090909"/>
<path d="M59.6027 66.3066C59.2766 66.5243 58.6969 67.2136 57.8998 68.3383C57.936 67.4313 58.0085 66.6331 58.081 65.9075L57.8273 65.7261C56.9577 66.3066 55.907 66.8145 54.6389 67.1773V67.7941H54.8925C55.291 67.7215 55.5809 67.6853 55.7621 67.6853C56.0882 67.6853 56.2693 67.7941 56.3418 68.1206C56.378 68.302 56.378 69.5719 56.378 71.9664V74.4698C56.378 75.0503 56.3056 75.4494 56.1969 75.5945C56.0519 75.7034 55.5084 75.8848 54.6389 76.1388V76.7918C55.9432 76.7555 56.8853 76.683 57.465 76.683C58.1534 76.683 58.9143 76.7555 59.7477 76.7918V76.1388C58.9505 75.9211 58.4433 75.7397 58.2984 75.6671C58.1534 75.522 58.081 75.3406 58.0447 75.1229C57.9723 74.5061 57.8998 73.3088 57.8998 71.6399C57.8998 70.5877 58.0085 69.8984 58.2259 69.2816C58.4071 68.7737 58.7694 68.2658 59.2042 67.9029C59.5303 67.6127 59.7839 67.4676 60.0738 67.4676C60.2549 67.4676 60.4361 67.5401 60.581 67.6853C60.7259 67.8667 60.7984 68.1206 60.9071 68.5197H61.4144C61.4868 67.6853 61.5955 66.9234 61.7767 66.1252C61.4144 65.9438 61.0883 65.9075 60.7984 65.9075C60.3274 65.9075 59.9288 66.0163 59.6027 66.3066Z" fill="#090909"/>
<path d="M20.1092 65.5811C19.4933 65.5811 18.8773 65.6899 18.4063 65.8713C17.6454 66.1616 17.0295 66.5969 16.486 67.25C15.5439 68.2659 15.1091 69.7171 15.1091 71.5312C15.1091 73.3089 15.5077 74.6513 16.3773 75.6672C16.9208 76.284 17.6092 76.7556 18.4425 76.9008C18.8411 77.0096 19.2397 77.0822 19.7469 77.0822C21.2324 77.0822 22.3919 76.5742 23.3339 75.4858C24.276 74.3974 24.7108 72.9098 24.7108 71.0595C24.7108 69.318 24.3122 67.9756 23.4789 67.0686C22.6455 66.089 21.5223 65.5811 20.1092 65.5811ZM21.9933 75.0141C21.4498 75.7398 20.7614 76.1026 19.9643 76.1026C19.3484 76.1026 18.8411 75.8849 18.4063 75.4495C18.3701 75.4495 18.3338 75.4132 18.2614 75.4132C17.8266 74.9053 17.4643 74.216 17.2106 73.2364C17.0657 72.6559 16.9932 71.7126 16.9932 70.5516C16.9932 69.2092 17.2469 68.157 17.7541 67.504C17.9353 67.2863 18.1527 67.0686 18.3701 66.9235C18.7686 66.6332 19.2397 66.5244 19.7107 66.5244C20.5078 66.5244 21.2324 66.9235 21.8846 67.7579C22.4644 68.5924 22.7905 69.8985 22.7905 71.64C22.8267 73.2364 22.5368 74.3611 21.9933 75.0141Z" fill="#090909"/>
<path d="M69.5665 65.979H69.168V66.6321C69.2767 66.6683 69.3854 66.6683 69.4216 66.7409C69.639 66.8135 69.8202 66.886 69.9289 67.0312C69.9651 67.0674 70.0376 67.1763 70.0376 67.3214C70.0376 67.5028 70.0013 67.6479 69.9289 67.8656C69.8926 68.0833 69.6752 68.8089 69.2404 70.0062C68.552 72.0017 68.1172 73.2715 67.8998 73.9246L66.6679 70.5141C66.4868 70.0062 66.2331 69.0992 65.7983 67.8656C65.6896 67.5754 65.6534 67.5028 65.6534 67.3577V67.2851C65.6534 67.14 65.6896 67.0674 65.7983 66.9586C65.8708 66.8498 66.1607 66.8135 66.5955 66.6683C66.6317 66.6683 66.7404 66.6321 66.8129 66.6321V65.979C65.7621 66.0878 64.965 66.1604 64.4215 66.1604C63.8418 66.1604 63.1171 66.1241 62.32 65.979V66.6321C62.8635 66.8135 63.2258 66.9586 63.2983 67.0674C63.4795 67.2488 63.6606 67.5028 63.8418 67.9382C64.3853 69.0992 65.4722 72.1831 67.1752 77.081H67.7549C69.8564 71.0221 71.0521 67.7931 71.2695 67.394C71.4144 67.0674 71.813 66.8498 72.5014 66.6321V65.979C71.9579 66.0878 71.5231 66.1604 71.1608 66.1604C70.8709 66.1241 70.255 66.0878 69.5665 65.979Z" fill="#090909"/>
<path d="M47.5733 53.1001L47.2472 52.6285C46.7399 52.9913 46.3414 53.2453 46.124 53.2453C45.9428 53.2453 45.7617 53.1364 45.6167 52.9187C45.4718 52.7373 45.4356 52.3382 45.4356 51.7215L45.5443 47.0412C45.5443 46.2793 45.508 45.6625 45.3631 45.336C45.2906 44.9369 45.1095 44.6466 44.8558 44.3564C44.6384 44.0661 44.3486 43.8847 43.9863 43.7396C43.6239 43.5945 43.1891 43.5945 42.7181 43.5945C42.4645 43.5945 42.2109 43.5945 41.921 43.6308C41.1239 43.7759 40.1818 44.0661 39.1673 44.5378C39.1311 45.336 39.0224 46.0616 38.9137 46.9323L39.6021 46.9686C39.9282 46.1704 40.2181 45.5899 40.6529 45.1909C41.0152 44.828 41.45 44.6104 41.9572 44.6104H42.1022C42.6456 44.6104 43.0804 44.7555 43.3703 45.1183C43.6964 45.4448 43.8051 46.1704 43.8776 47.1863C43.2978 47.4766 42.7181 47.8031 41.9935 48.0933C41.5587 48.3836 41.0152 48.6738 40.4717 48.9278C39.892 49.2906 39.5296 49.5083 39.2398 49.726C38.9861 50.0163 38.6963 50.3428 38.5514 50.7419C38.3702 51.141 38.2977 51.5763 38.2977 52.048C38.2977 52.8825 38.5514 53.5355 39.0224 54.0072C39.4572 54.4788 40.0731 54.7691 40.834 54.7691C41.2326 54.7691 41.6311 54.6602 41.9935 54.5514L42.0659 54.4788C42.4645 54.3337 43.0442 53.8621 43.8776 53.1727C43.95 53.7532 44.095 54.1886 44.3848 54.4063C44.6022 54.624 44.9283 54.7691 45.3631 54.7691C45.6167 54.7691 45.9066 54.6965 46.0878 54.624C46.124 54.5514 46.595 54.0072 47.5733 53.1001ZM43.8413 50.1251C43.8413 51.1047 43.7326 51.7215 43.6239 52.048C43.479 52.4471 43.1891 52.7373 42.7181 53.0276C42.4645 53.209 42.2109 53.3541 41.9572 53.3904C41.8123 53.4267 41.6311 53.4992 41.5224 53.4992C41.1601 53.4992 40.7978 53.3541 40.5442 52.955C40.2905 52.6648 40.1456 52.2294 40.1456 51.6126C40.1456 51.0684 40.3268 50.5605 40.6891 50.1614C40.9065 49.9437 41.3775 49.6172 41.9935 49.1818C42.5369 48.9278 43.1167 48.6376 43.8776 48.2385V50.1251H43.8413Z" fill="#090909"/>
<path d="M35.3268 75.6671C35.2181 75.5946 35.1818 75.4494 35.1456 75.2317C35.1094 74.8689 35.1094 73.7805 35.1094 71.9664V69.2453C35.1094 68.0843 34.9644 67.2499 34.6021 66.8145C34.1673 66.0889 33.3702 65.7261 32.4282 65.7261C32.0296 65.7261 31.5586 65.7986 31.16 65.9438C30.9064 66.0889 30.6165 66.2703 30.4354 66.4154L29.131 67.9029C29.1672 67.2499 29.2397 66.5605 29.3122 65.9075L29.0585 65.7261C28.0802 66.3791 26.9933 66.8508 25.7614 67.1773V67.7941C25.9425 67.7941 26.0874 67.7215 26.1599 67.7215C26.486 67.6853 26.7034 67.6853 26.8483 67.6853C27.1744 67.6853 27.3918 67.8304 27.4281 68.1569C27.4643 68.3746 27.5368 69.717 27.5368 72.3292C27.5368 73.4902 27.5005 74.5424 27.3918 75.2317C27.3918 75.4857 27.3556 75.6671 27.2469 75.6671C27.1744 75.8122 26.7034 75.9211 25.9063 76.1388V76.7918C27.0657 76.7555 27.9715 76.683 28.5513 76.683C29.1672 76.683 29.8919 76.7555 30.7977 76.7918V76.1388C30.6528 76.1025 30.5441 76.1025 30.4354 76.0299C29.7469 75.8485 29.3484 75.6308 29.2759 75.4131C29.131 75.1955 29.0948 73.7079 29.0948 71.0231C29.0948 70.0435 29.2397 69.2816 29.4209 68.81C29.6382 68.3746 29.9643 67.9392 30.3629 67.649C30.7977 67.3587 31.2687 67.2136 31.7035 67.2136C32.1021 67.2136 32.4644 67.3587 32.7905 67.649C33.0441 67.9029 33.2977 68.2658 33.3702 68.7737C33.4064 69.1365 33.4427 70.1161 33.4427 71.7125C33.4427 73.3088 33.4064 74.4336 33.2977 75.1955C33.2977 75.4131 33.2615 75.522 33.1528 75.6308C33.0079 75.6671 32.6093 75.8848 31.8122 76.1388V76.7918C33.1166 76.7555 34.0586 76.683 34.6021 76.683C35.1818 76.683 35.9065 76.7555 36.7036 76.7918V76.1388C36.4862 76.1025 36.3413 76.1025 36.2688 76.0299C35.7616 75.8848 35.4717 75.7397 35.3268 75.6671Z" fill="#090909"/>
<path d="M34.2397 48.202C33.2614 47.5852 32.573 47.1499 32.2469 46.7145C32.0295 46.4605 31.8846 46.134 31.8846 45.8075C31.8846 45.4084 32.0658 45.1181 32.3194 44.7916C32.573 44.5013 33.0078 44.3925 33.4788 44.3925C34.0223 44.3925 34.4571 44.5739 34.8557 44.9004C35.218 45.3358 35.4354 45.8437 35.4716 46.4605L36.1601 46.5694C36.2325 45.4446 36.3412 44.6102 36.4137 43.9571C35.5441 43.558 34.747 43.3403 33.9861 43.3403C32.8991 43.3403 31.9933 43.6669 31.3773 44.3562C30.6889 44.973 30.3991 45.7349 30.3991 46.4968C30.3991 47.0773 30.544 47.5489 30.9063 48.0206C31.2324 48.4923 31.8846 49.0002 32.8991 49.5444C33.8774 50.1249 34.5296 50.5966 34.8194 50.9594C35.0731 51.2859 35.218 51.7213 35.218 52.1567C35.218 52.592 35.0731 53.0274 34.8194 53.2814C34.4934 53.6079 34.0948 53.7167 33.5875 53.7167C33.0078 53.7167 32.5006 53.5353 32.102 53.2088C31.7034 52.7734 31.3773 52.1567 31.1962 51.2496H30.4715C30.4715 52.1567 30.4353 53.1 30.3266 54.1521C31.3049 54.5875 32.2107 54.8052 33.0803 54.8052C34.2035 54.8052 35.1093 54.4424 35.7615 53.7893C36.4499 53.1 36.7398 52.3743 36.7398 51.3947C36.7398 50.778 36.5586 50.1612 36.1963 49.6895C35.9427 49.2904 35.2905 48.7825 34.2397 48.202Z" fill="#090909"/>
<path d="M41.9215 70.5879C41.849 70.5153 41.7041 70.4427 41.5591 70.3702C40.5084 69.8259 39.8562 69.318 39.5301 68.9189C39.3127 68.6287 39.204 68.3384 39.204 68.0119C39.204 67.6128 39.3489 67.2863 39.6026 66.996C39.9287 66.7058 40.291 66.5606 40.762 66.5606C41.1968 66.5606 41.5591 66.6332 41.8852 66.9235C41.9577 66.996 42.0664 67.0323 42.1388 67.1411C42.5012 67.504 42.7186 68.0482 42.7548 68.6649L43.4795 68.7738C43.5519 67.6491 43.6606 66.7783 43.7331 66.1615C43.0447 65.9076 42.4649 65.7262 41.849 65.6173C41.6678 65.6173 41.4867 65.5811 41.2693 65.5811C40.1823 65.5811 39.3489 65.9076 38.6605 66.5969C37.9721 67.25 37.6822 67.9393 37.6822 68.7738C37.6822 69.318 37.8634 69.8259 38.1895 70.2976C38.5518 70.7693 39.2402 71.2772 40.2185 71.8214C40.9794 72.2568 41.5591 72.6196 41.8852 73.0187C41.9577 73.055 42.0664 73.1275 42.1026 73.2364C42.4287 73.5629 42.5374 73.962 42.5374 74.4336C42.5374 74.9416 42.3925 75.2681 42.1026 75.6309C42.0664 75.7035 41.9577 75.7035 41.8852 75.7398C41.6678 75.9212 41.3055 76.03 40.9069 76.03C40.3272 76.03 39.82 75.8486 39.4214 75.4858C39.0228 75.0504 38.733 74.4336 38.5156 73.5266H37.8272C37.8272 74.4336 37.7909 75.4132 37.646 76.4654C38.6967 76.8645 39.5663 77.0822 40.3997 77.0822C40.9794 77.0822 41.4867 77.0096 41.8852 76.8645C42.3925 76.6831 42.791 76.3928 43.1171 76.0663C43.8055 75.4495 44.0954 74.6151 44.0954 73.708C44.0954 73.055 43.9142 72.5107 43.5882 71.9303C43.3345 71.4949 42.7548 71.0595 41.9215 70.5879Z" fill="#090909"/>
<path d="M88.8062 44.9369C89.3135 44.6466 89.7483 44.5015 90.2556 44.5015C90.944 44.5015 91.5237 44.7192 91.9223 45.1546C92.3208 45.59 92.502 46.3156 92.5382 47.2952L93.2266 47.3314C93.3716 46.497 93.5165 45.8076 93.6252 45.2634C93.6614 44.8643 93.7701 44.5378 93.8064 44.2838C92.8643 43.7396 91.9223 43.4131 90.9077 43.4131C89.4222 43.4131 88.1903 44.0299 87.1758 45.1909C86.1975 46.3156 85.6902 47.8031 85.6902 49.6172C85.6902 51.3949 86.125 52.7736 87.1396 53.7895C87.8642 54.5151 88.8062 54.9505 89.9657 54.9505C90.4729 54.9505 90.8715 54.8779 91.2338 54.6965C91.9223 54.2974 92.7918 53.7532 93.8426 52.8462L93.4803 52.1568C92.2846 52.9187 91.2701 53.2816 90.4367 53.2816C89.6396 53.2816 88.9512 52.9187 88.3352 52.0843C87.7555 51.2861 87.4294 50.2339 87.4294 48.819C87.4294 47.9845 87.5743 47.1863 87.828 46.497C88.0091 45.7714 88.3715 45.2634 88.8062 44.9369Z" fill="#090909"/>
<path d="M102.828 66.5963V65.9433C103.843 66.0521 104.604 66.1247 105.075 66.1247C105.437 66.1247 106.198 66.0884 107.358 65.9433V66.5963C106.814 66.7052 106.415 66.814 106.271 66.9954C106.198 67.0317 106.162 67.1043 106.162 67.2494C106.162 67.3945 106.198 67.7936 106.452 68.3741C107.176 70.3696 107.937 72.1836 108.589 73.78L109.604 70.3696C110.22 68.5918 110.51 67.5396 110.51 67.2494C110.51 67.1405 110.51 67.0317 110.401 66.9591C110.365 66.814 110.184 66.7777 109.93 66.6689C109.894 66.6689 109.785 66.5963 109.676 66.56V65.907C110.51 66.0158 111.126 66.0884 111.488 66.0884C111.959 66.0884 112.466 66.0521 113.01 65.907V66.56C112.539 66.7052 112.14 66.8866 111.959 67.1043C111.814 67.2857 111.452 68.1927 110.945 69.6439L108.952 75.5215C108.372 77.3718 107.937 78.4965 107.647 79.1496C107.249 79.9115 106.814 80.492 106.343 80.8911C105.836 81.3265 105.401 81.4716 104.93 81.4716C104.713 81.4716 104.386 81.399 103.952 81.3628C103.915 80.9274 103.77 80.5283 103.698 80.3469C103.662 80.1292 103.517 79.8027 103.263 79.4036L103.698 79.1133C104.169 79.585 104.676 79.8389 105.22 79.8389C105.691 79.8389 106.126 79.6575 106.452 79.2584C106.886 78.7142 107.285 77.8072 107.684 76.3922L105.727 71.3492C105.111 69.6802 104.568 68.5192 104.133 67.5396C103.952 67.2494 103.843 67.1043 103.734 66.9954C103.589 66.8503 103.299 66.7777 102.828 66.5963Z" fill="#090909"/>
<path d="M119.749 33.1451C120.039 36.5556 118.952 39.4943 118.372 40.5102C113.155 49.4716 117.756 62.3514 129.423 58.8685C123.046 53.39 125.401 45.4081 123.517 40.0748C123.408 39.8209 124.423 39.7846 124.894 39.7483C124.64 39.6032 123.155 38.9138 123.082 38.6961C122.575 37.3537 122.14 35.7211 121.053 34.4512C122.43 35.068 124.351 35.5397 126.38 35.9388C126.669 35.9751 127.104 35.7574 127.467 35.7936C128.083 35.9025 128.264 36.2653 128.771 36.3741C132.249 36.9909 135.8 37.2812 137.503 38.2608C139.677 39.458 139.641 40.7279 139.641 41.4898C144.423 41.3447 148.808 53.644 145.945 54.4059C146.271 56.4739 147.322 57.8889 148.083 59.848C149.496 63.6576 153.119 71.712 155.366 76.8639C161.851 70.2607 165.837 61.2267 165.837 51.2857C165.837 31.1134 149.496 14.7869 129.387 14.7869C123.626 14.7869 118.191 16.1293 113.336 18.4875C113.807 19.8662 114.278 21.0998 114.713 22.1157C117.14 20.737 119.314 28.102 119.749 33.1451Z" fill="#2ABBDD"/>
<path d="M126.198 78.8598C124.423 81.8348 123.553 84.9913 121.923 87.023C124.314 87.531 126.814 87.7849 129.35 87.7849C137.503 87.7849 145.003 85.1001 151.09 80.6013C147.793 75.4131 144.278 69.9709 143.155 68.3745C141.38 73.4902 129.495 73.345 126.198 78.8598Z" fill="#2ABBDD"/>
<path d="M141.09 49.9433C141.38 50.0159 141.706 49.6893 141.887 49.1451C142.032 48.6009 141.887 48.1655 141.597 48.093C141.307 48.0204 140.981 48.3832 140.8 48.8912C140.655 49.3991 140.764 49.8708 141.09 49.9433Z" fill="#090909"/>
<path d="M132.612 49.4714C132.358 54.841 136.488 54.5508 137.684 55.3127C137.394 52.1562 133.988 53.934 132.612 49.4714Z" fill="#090909"/>
<path d="M161.634 92.3197C160.909 88.4739 157.25 81.4354 156.054 78.5329C155.837 78.025 155.583 77.4445 155.33 76.864C153.119 71.7483 149.46 63.6576 148.047 59.8481C147.286 57.8889 146.271 56.5103 145.909 54.4059C148.735 53.6078 144.387 41.3085 139.605 41.4899C139.605 40.728 139.641 39.4218 137.467 38.2608C135.764 37.3175 132.213 36.991 128.735 36.3742C128.228 36.2654 128.083 35.9026 127.43 35.7937C127.068 35.7574 126.633 35.9751 126.343 35.9388C124.278 35.5398 122.394 35.0681 121.017 34.4513C122.104 35.7212 122.539 37.3538 123.046 38.6962C123.119 38.9139 124.641 39.6032 124.858 39.7484C124.387 39.7846 123.372 39.8209 123.481 40.0749C125.365 45.4082 122.974 53.3901 129.387 58.8685C117.72 62.3878 113.119 49.4717 118.336 40.5103C118.916 39.4944 120.003 36.5919 119.713 33.1452C119.278 28.1021 117.104 20.737 114.677 22.1157C114.242 21.0999 113.771 19.83 113.3 18.4876C110.908 11.7756 108.082 2.34251 105.111 3.21326C104.133 2.95929 104.278 5.71666 105.292 9.81642C103.626 7.7484 101.886 -1.72098 98.0458 0.274484C93.9877 2.41507 100.546 11.6668 101.56 14.3516C99.8936 13.4445 97.8646 7.82096 95.7631 8.83683C92.4297 10.4332 98.553 19.6849 100.618 21.2813C99.7487 18.5602 98.1545 16.7098 97.7921 14.0613C99.2777 14.6055 103.227 19.6849 105.039 21.2087C105.437 20.8459 103.408 14.9321 104.024 13.0817C104.785 14.0976 106.705 18.923 108.082 21.6441C108.408 22.2609 108.662 22.7688 108.916 23.1316C109.242 23.0953 109.242 22.4785 109.423 21.1724C109.459 21.0273 109.459 20.8822 109.495 20.737C109.749 18.6327 109.713 17.4355 110.039 18.016C110.256 18.4151 110.51 19.1044 110.763 19.9389C111.85 23.2767 113.408 29.2994 114.387 32.0568C114.677 32.1293 114.966 31.8754 115.111 30.8595C115.51 28.0658 116.053 27.1588 116.126 27.5579C116.307 29.0817 117.43 30.7869 117.974 32.9638C118.988 36.9184 111.488 47.9842 117.793 56.5828C121.887 62.2064 136.271 61.4082 134.17 59.2676C128.083 59.2676 126.778 46.1701 125.836 42.5783C125.655 41.889 125.872 41.5624 126.271 41.381C126.996 41.6713 127.684 41.5261 128.228 41.6713C128.119 41.1633 126.959 39.567 126.633 38.9502C127.249 39.0953 128.844 39.3493 129.17 39.6395C129.206 39.4944 128.844 37.8255 129.133 37.7529C132.141 38.4785 135.148 40.1837 138.155 41.9252C141.163 43.6667 145.293 48.601 144.822 52.5919C144.713 53.3538 143.554 53.6078 142.612 53.5715C144.206 57.7438 148.554 65.7982 150.511 69.9343C151.272 71.5306 152.938 74.796 154.46 77.9161C155.728 80.5647 156.888 83.1406 157.214 84.4467C156.525 83.3946 155.185 81.254 153.59 78.7143C149.858 72.6554 144.786 64.2744 144.134 62.6418C144.025 62.6055 143.953 62.678 143.916 62.7143C144.097 63.6576 150.692 75.3764 152.902 79.2948C153.301 80.0204 153.554 80.4558 153.627 80.5647C153.337 80.3832 153.011 80.0204 152.612 79.5488C149.025 75.195 141.09 60.4286 140.655 59.3039C141.779 62.8595 143.119 67.322 138.807 69.6077C132.322 73.0182 124.822 72.22 121.996 87.0953C123.662 85.0635 124.496 81.9071 126.271 78.932C129.568 73.4173 141.489 73.5624 143.192 68.4105C144.315 70.0431 147.829 75.4853 151.127 80.6372C154.098 85.2812 156.924 89.6712 157.83 90.9773C159.46 93.3356 159.206 94.2064 158.156 97C158.953 96.3469 161.888 93.5533 161.634 92.3197Z" fill="#090909"/>
</svg>
